<?xml version="1.0" encoding="UTF-8"?>
<svg width="328px" height="327px" viewBox="0 0 328 327" version="1.1" xmlns="http://www.w3.org/2000/svg" xmlns:xlink="http://www.w3.org/1999/xlink">
    <!-- Generator: Sketch 50.2 (55047) - http://www.bohemiancoding.com/sketch -->
    <title>bulles +@2x</title>
    <desc>Created with Sketch.</desc>
    <defs>
        <linearGradient x1="50%" y1="0%" x2="50%" y2="100%" id="linearGradient-1">
            <stop stop-color="#FF7BAC" offset="0%"></stop>
            <stop stop-color="#6864FF" offset="100%"></stop>
        </linearGradient>
        <linearGradient x1="155.306818%" y1="9.1700069%" x2="50%" y2="100%" id="linearGradient-2">
            <stop stop-color="#ACF3FF" offset="0%"></stop>
            <stop stop-color="#749FFF" offset="100%"></stop>
        </linearGradient>
        <linearGradient x1="94.1548889%" y1="7.21584839%" x2="16.1957004%" y2="114.395519%" id="linearGradient-3">
            <stop stop-color="#FFD48F" offset="0%"></stop>
            <stop stop-color="#FF6A92" offset="100%"></stop>
        </linearGradient>
        <filter x="-185.1%" y="-143.9%" width="529.5%" height="533.0%" filterUnits="objectBoundingBox" id="filter-4">
            <feOffset dx="16" dy="39" in="SourceAlpha" result="shadowOffsetOuter1"></feOffset>
            <feGaussianBlur stdDeviation="32.5" in="shadowOffsetOuter1" result="shadowBlurOuter1"></feGaussianBlur>
            <feColorMatrix values="0 0 0 0 0.167519423   0 0 0 0 0.403455544   0 0 0 0 0.721061862  0 0 0 0.332087862 0" type="matrix" in="shadowBlurOuter1" result="shadowMatrixOuter1"></feColorMatrix>
            <feMerge>
                <feMergeNode in="shadowMatrixOuter1"></feMergeNode>
                <feMergeNode in="SourceGraphic"></feMergeNode>
            </feMerge>
        </filter>
        <linearGradient x1="100%" y1="12.3204%" x2="0%" y2="86.7257171%" id="linearGradient-5">
            <stop stop-color="#8BF1E3" offset="0%"></stop>
            <stop stop-color="#53DEC4" offset="100%"></stop>
        </linearGradient>
    </defs>
    <g id="Page-1" stroke="none" stroke-width="1" fill="none" fill-rule="evenodd">
        <g id="bulles-+" transform="translate(41.010714, 26.404092)">
            <g id="Group-12" transform="translate(0.000000, 0.511509)">
                <polyline id="Path-16-Copy-2" stroke="url(#linearGradient-1)" stroke-width="83.2000012" opacity="0.100000001" stroke-linecap="round" stroke-linejoin="round" points="0.713764965 86.7925156 123.116 15.8856242 33.8162562 188.088075 228.582077 94.5844816 123.116 257.436573 228.582077 222.372725"></polyline>
                <ellipse id="Oval-7-Copy-8" stroke="#FF7B91" stroke-width="8.32" opacity="0.300000012" cx="271.838112" cy="226.686674" rx="10.1511738" ry="10.2747459"></ellipse>
                <ellipse id="Oval-7-Copy-5" stroke="#6D9BF7" stroke-width="8.736" opacity="0.300000012" cx="167.582517" cy="15.8856242" rx="14.89995" ry="15.0813299"></ellipse>
                <ellipse id="Oval-7-Copy-5" stroke="#96D2FF" stroke-width="8.736" opacity="0.300000012" cx="11.3724974" cy="216.411928" rx="10.6587324" ry="10.7884832"></ellipse>
            </g>
            <g id="Group-7-Copy" transform="translate(30.810176, 52.685422)">
                <path d="M65.0286268,132.219662 L74.4696846,124.812373 L172.525199,124.812373 C176.059822,124.812373 178.925199,121.946996 178.925199,118.412373 L178.925199,14.41017 L218.760637,14.41017 C222.29526,14.41017 225.160637,17.2755474 225.160637,20.8101696 L225.160637,125.819662 C225.160637,129.354284 222.29526,132.219662 218.760637,132.219662 L198.267857,132.219662 L194.382395,148.478141 C194.168004,149.375247 193.762236,150.215413 193.192884,150.941087 C191.011065,153.721954 186.988013,154.207578 184.207147,152.025759 L158.963024,132.219662 L65.0286268,132.219662 Z" id="Combined-Shape" fill="url(#linearGradient-2)"></path>
                <path d="M7.31596613,0.997447 L165.169095,0.997447 C168.703717,0.997447 171.569095,3.86282443 171.569095,7.39744662 L171.569095,112.406939 C171.569095,115.941561 168.703717,118.806939 165.169095,118.806939 L67.1135801,118.806939 L41.8694568,138.613036 C39.0885902,140.794855 35.0655385,140.309231 32.8837193,137.528364 C32.3143681,136.80269 31.9085993,135.962524 31.6942082,135.065418 L27.808747,118.806939 L7.31596613,118.806939 C3.78134394,118.806939 0.915966514,115.941561 0.915966514,112.406939 L0.915966514,7.39744662 C0.915966514,3.86282443 3.78134394,0.997447 7.31596613,0.997447 Z" id="Rectangle-2" fill="url(#linearGradient-3)"></path>
            </g>
            <g id="Group-9" filter="url(#filter-4)" transform="translate(3.520891, 28.878277)">
                <ellipse id="Oval-6" fill="url(#linearGradient-5)" cx="27.7780335" cy="27.1099744" rx="26.7839286" ry="27.1099744"></ellipse>
                <g id="Group-7" transform="translate(16.458034, 17.800512)" stroke="#FFFFFF" stroke-linecap="round" stroke-width="4.89999992">
                    <path d="M11.3199998,0 L11.3199998,18.6189255" id="Path-11"></path>
                    <path d="M22.2255006,9.66751902 L0,9.66751902" id="Path-11-Copy"></path>
                </g>
            </g>
        </g>
    </g>
</svg>